# xmcd
#
# Track frame offsets: 
#        150
#        21875
#        47910
#        65567
#        92564
#        119655
#        144124
#        162274
#        179094
#        208537
#        228044
#
# Disc length: 3387 seconds
#
# Revision: 0
# Processed by: cddbd v1.5.2PL0 Copyright (c) Steve Scherf et al.
# Submitted via: ExactAudioCopyFreeDBPlugin 1.0
#
DISCID=950d390b
DTITLE=Various Artist - The Legacy Of New Jack Swing [CD1)
DYEAR=2016
DGENRE=Funk
TTITLE0=Michael Jackson - Remember The Time (12'' Main Mix)
TTITLE1=Brownstone - If You Love Me (Characters Funk Remix Extended Ve
TTITLE1=rsion)
TTITLE2=Keisha Jackson - My Happiness
TTITLE3=R. Kelly and Public Announcement - Definition Of A Hotti (Extend
TTITLE3=ed Version)
TTITLE4=Aaliyah - Back and Forth (Ms. Mello Remix)
TTITLE5=Jazzy Jeff and The Fresh Prince - I'm Looking For The One (To Be
TTITLE5=With Me) (12'' Mix)
TTITLE6=Blackgirl - 90's Girl (Encore Alt. Remix Radio Edit)
TTITLE7=Trey Lorenz - Photograph Of Mary (Rooney and Morales Remix)
TTITLE8=TLC - Get It Up (12'' Remix)
TTITLE9=Toni Braxton - I Belong To You (Rollerskate Radio Mix)
TTITLE10=Ghost Town DJ's - My Boo (Hitman's Club Mix)
EXTD=
EXTT0=
EXTT1=
EXTT2=
EXTT3=
EXTT4=
EXTT5=
EXTT6=
EXTT7=
EXTT8=
EXTT9=
EXTT10=
PLAYORDER=
